<svg width="96" height="96" viewBox="0 0 96 96" fill="none" xmlns="http://www.w3.org/2000/svg">
    <g clip-path="url(#clip0_112_3648)">
        <mask id="mask0_112_3648" style="mask-type:luminance" maskUnits="userSpaceOnUse" x="0" y="0"
            width="96" height="96">
            <path d="M96 0H0V96H96V0Z" fill="white" />
        </mask>
        <g mask="url(#mask0_112_3648)">
            <mask id="mask1_112_3648" style="mask-type:alpha" maskUnits="userSpaceOnUse" x="0" y="0"
                width="96" height="96">
                <path
                    d="M48 96C74.5096 96 96 74.5096 96 48C96 21.4903 74.5096 0 48 0C21.4903 0 0 21.4903 0 48C0 74.5096 21.4903 96 48 96Z"
                    fill="#924242" />
            </mask>
            <g mask="url(#mask1_112_3648)">
                <path
                    d="M47.04 94.08C73.0195 94.08 94.08 73.0195 94.08 47.04C94.08 21.0605 73.0195 0 47.04 0C21.0605 0 0 21.0605 0 47.04C0 73.0195 21.0605 94.08 47.04 94.08Z"
                    fill="#F2F2F2" />
                <g opacity="0.4">
                    <path
                        d="M221.76 86.622C204.962 86.88 192.543 86.3981 148.195 72.6726C73.3583 49.5105 41.7616 84.96 2.41178e-05 86.88C-2.6694e-05 79.5684 2.20514e-05 27.8399 5.36486e-07 16.32C37.6021 15.8399 59.0416 17.4017 118.863 39.9143C175.939 61.3934 190.562 16.3201 221.76 16.3201C221.76 26.4 221.76 76.8 221.76 86.622Z"
                        fill="#E042E3" />
                </g>
                <g opacity="0.2">
                    <path
                        d="M220.8 69.1201C204 74.4 187.179 93.5393 164.64 93.6C140.856 93.664 117.904 84.4963 90.2487 72.7441C41.4259 51.9973 5.27999 66.24 1.77264e-05 69.1201C2.22364e-06 63.36 -8.17627e-06 36.2743 8.5321e-06 23.5201C14.88 16.8 47.6413 13.5319 117.422 39.5581C171.928 59.887 215.04 26.4 220.8 23.52C220.8 34.56 220.8 60.96 220.8 69.1201Z"
                        fill="#DF6DFF" />
                </g>
                <g opacity="0.2">
                    <path
                        d="M276.481 97.4399C250.081 95.04 226.73 81.5462 186.241 84C107.041 88.8 85.9208 113.28 9.0922e-06 97.4399C9.0922e-06 71.5702 -1.59244e-05 44.6397 1.70347e-05 36.9599C20.1608 31.68 59.0599 16.9619 147.312 51.6165C218.325 79.5016 252.961 42.72 276.481 36.9599C276.481 47.5199 276.481 80.5993 276.481 97.4399Z"
                        fill="#045B8F" />
                </g>
                <g opacity="0.7">
                    <path
                        d="M273.6 52.1605C251.04 60.4801 240.48 77.3762 216.96 78.2399C188.776 79.2748 138.792 58.7341 99.36 52.1605C85.92 49.92 77.7418 47.9971 52.32 46.56C28.7043 45.225 20.16 46.0801 2.63617e-06 52.1605C2.63617e-06 29.3741 -7.43463e-06 32.1599 1.17914e-05 24.9599C19.68 22.08 39.36 17.76 83.52 29.2801C101.657 34.0116 133.375 46.681 149.53 53.1205C216 81.1198 228.48 32.16 273.6 24.9599C273.6 37.0273 273.6 28.2697 273.6 52.1605Z"
                        fill="#A541A7" />
                </g>
            </g>
            <path fill-rule="evenodd" clip-rule="evenodd"
                d="M48 5.48573C24.52 5.48573 5.48573 24.52 5.48573 48C5.48573 71.4803 24.52 90.5145 48 90.5145C71.4802 90.5145 90.5145 71.4802 90.5145 48C90.5145 24.52 71.4803 5.48573 48 5.48573ZM0 48C0 21.4903 21.4903 0 48 0C74.5099 0 96 21.4903 96 48C96 74.5099 74.5099 96 48 96C21.4903 96 0 74.5099 0 48Z"
                fill="url(#paint0_linear_112_3648)" />
        </g>
    </g>
    <defs>
        <linearGradient id="paint0_linear_112_3648" x1="72" y1="0.959995" x2="21.12" y2="87.36"
            gradientUnits="userSpaceOnUse">
            <stop stop-color="#1271A9" />
            <stop offset="1" stop-color="#A826AB" />
        </linearGradient>
        <clipPath id="clip0_112_3648">
            <rect width="96" height="96" fill="white" />
        </clipPath>
    </defs>
</svg>
    